# xmcd
#
# Track frame offsets: 
#        150
#        12700
#        60274
#        77801
#        112755
#        135236
#        152990
#        183485
#        196474
#        216127
#        269803
#        298461
#
# Disc length: 4173 seconds
#
# Revision: 0
# Processed by: cddbd v1.5.2PL0 Copyright (c) Steve Scherf et al.
# Submitted via: ExactAudioCopyFreeDBPlugin 1.0
#
DISCID=b4104b0c
DTITLE=Innerspace - Rise
DYEAR=2017
DGENRE=Progressive Rock
TTITLE0=Dawn
TTITLE1=Tree Of Life
TTITLE2=The Other Side
TTITLE3=In Motion
TTITLE4=Fill The World
TTITLE5=Sunset
TTITLE6=Under The Spotlight
TTITLE7=I  From Sea To Sea
TTITLE8=II  Shadow Of Freedom
TTITLE9=III  Forsaken Dreams
TTITLE10=IV  Stronger Than Death
TTITLE11=V  Dusk
EXTD=
EXTT0=
EXTT1=
EXTT2=
EXTT3=
EXTT4=
EXTT5=
EXTT6=
EXTT7=
EXTT8=
EXTT9=
EXTT10=
EXTT11=
PLAYORDER=
